<svg width="36" height="35" viewBox="0 0 36 35" fill="none" xmlns="http://www.w3.org/2000/svg">
<path d="M18.1609 2.17334C9.75942 2.17334 2.94727 8.9855 2.94727 17.3869C2.94727 25.7884 9.75942 32.6005 18.1609 32.6005C26.5623 32.6005 33.3745 25.7884 33.3745 17.3869C33.3745 8.9855 26.5623 2.17334 18.1609 2.17334ZM25.4722 13.6413C25.4824 13.8009 25.4824 13.9673 25.4824 14.1303C25.4824 19.1154 21.6858 24.8579 14.748 24.8579C12.6086 24.8579 10.6254 24.2364 8.9546 23.1667C9.26023 23.2007 9.55227 23.2143 9.8647 23.2143C11.6306 23.2143 13.2538 22.6166 14.5476 21.6046C12.8904 21.5707 11.4981 20.484 11.0227 18.9898C11.6034 19.0747 12.1264 19.0747 12.724 18.9219C11.8707 18.7485 11.1038 18.2851 10.5534 17.6103C10.0031 16.9356 9.70335 16.0911 9.70509 15.2204V15.1728C10.2043 15.4547 10.7918 15.6279 11.4064 15.6516C10.8897 15.3073 10.466 14.8407 10.1727 14.2934C9.87952 13.746 9.72588 13.1348 9.72546 12.5138C9.72546 11.8109 9.90884 11.1691 10.2382 10.6121C11.1854 11.7781 12.3672 12.7316 13.707 13.4109C15.0468 14.0902 16.5146 14.4799 18.0148 14.5548C17.4817 11.9909 19.397 9.91597 21.6994 9.91597C22.7861 9.91597 23.7641 10.371 24.4534 11.1045C25.3058 10.9449 26.1208 10.6257 26.8475 10.1978C26.5657 11.0706 25.9748 11.8075 25.1904 12.2727C25.951 12.1912 26.6845 11.9807 27.3637 11.6852C26.8509 12.4391 26.2091 13.1081 25.4722 13.6413Z" fill="white"/>
</svg>
